<svg width="130" height="130" viewBox="0 0 130 130" fill="none" xmlns="http://www.w3.org/2000/svg">
<circle cx="65" cy="65" r="62" fill="white" stroke="white" stroke-width="6"/>
<path d="M127 65C127 73.142 125.396 81.2042 122.281 88.7264C119.165 96.2486 114.598 103.083 108.841 108.841C103.083 114.598 96.2486 119.165 88.7264 122.281C81.2042 125.396 73.142 127 65 127C56.858 127 48.7958 125.396 41.2736 122.281C33.7514 119.165 26.9166 114.598 21.1594 108.841C15.4021 103.083 10.8353 96.2486 7.71947 88.7264C4.60368 81.2042 3 73.142 3 65C3 56.858 4.60368 48.7958 7.71947 41.2736C10.8353 33.7514 15.4022 26.9166 21.1594 21.1594C26.9166 15.4021 33.7514 10.8353 41.2736 7.71947C48.7958 4.60368 56.8581 3 65 3C73.142 3 81.2042 4.60368 88.7264 7.71947C96.2486 10.8353 103.083 15.4022 108.841 21.1594C114.598 26.9166 119.165 33.7514 122.281 41.2736C125.396 48.7958 127 56.8581 127 65L127 65Z" stroke="#2CAC7E" stroke-width="6" stroke-linecap="round"/>
<path d="M90.973 42.072V87H80.029V60.056L69.981 87H61.149L51.037 59.992V87H40.093V42.072H53.021L65.629 73.176L78.109 42.072H90.973Z" fill="#409DB1"/>
</svg>
